{
	"asset":{
		"version":"2.0",
		"generator":"Maxon Cinema 4D 2023.2.1 (#200000219)"
	},
	"scenes":[{
		"nodes":[0]
	}],
	"nodes":[{
		"name":"PERFUME LOEWE.1",
		"translation":[0.009274112991988659,
		2.382518768310547,
		0.051561757922172549],
		"rotation":[0.0,
		-1.0,
		0.0,
		-6.123234262925839e-17],
		"scale":[1.0,
		1.0,
		1.0],
		"children":[1,
		2,
		3,
		4]
	},
	{
		"name":"TAPA",
		"translation":[-1.1975153684616089,
		-2.1745657920837404,
		-0.45990532636642458],
		"rotation":[0.0,
		0.0,
		0.0,
		-1.0],
		"scale":[1.0,
		1.0,
		1.0],
		"children":[5,
		6]
	},
	{
		"name":"ETIQUETA",
		"mesh":0,
		"translation":[0.03544251620769501,
		0.1495921015739441,
		0.417143315076828],
		"rotation":[-0.7071067690849304,
		0.0,
		0.0,
		-0.7071067690849304],
		"scale":[1.0,
		1.0,
		1.0]
	},
	{
		"name":"COLONIA",
		"translation":[-1.1975153684616089,
		-2.1897683143615724,
		-0.45990532636642458],
		"rotation":[0.0,
		0.0,
		0.0,
		-1.0],
		"scale":[1.0,
		1.0,
		1.0],
		"children":[7]
	},
	{
		"name":"FRASCO",
		"translation":[-1.1975153684616089,
		-2.1897683143615724,
		-0.45990532636642458],
		"rotation":[0.0,
		0.0,
		0.0,
		-1.0],
		"scale":[1.0,
		1.0,
		1.0],
		"children":[8]
	},
	{
		"name":"TAPA",
		"children":[9]
	},
	{
		"name":"Extrusión.1",
		"mesh":1,
		"translation":[0.8660332560539246,
		4.154519557952881,
		0.7982262372970581],
		"rotation":[0.0,
		0.0,
		0.0,
		-1.0],
		"scale":[1.0,
		1.0,
		1.0]
	},
	{
		"name":"COLONIA",
		"mesh":2,
		"translation":[1.2315058708190919,
		2.9878761768341066,
		0.4340258836746216],
		"rotation":[0.0,
		0.0,
		0.0,
		-1.0],
		"scale":[1.0,
		1.0,
		1.0]
	},
	{
		"name":"FRASCO",
		"mesh":3,
		"translation":[1.2315058708190919,
		2.9878761768341066,
		0.4340258836746216],
		"rotation":[0.0,
		0.0,
		0.0,
		-1.0],
		"scale":[1.0,
		1.0,
		1.0]
	},
	{
		"name":"TAPA",
		"mesh":4,
		"translation":[1.2308273315429688,
		3.7292187213897707,
		0.4290755093097687],
		"rotation":[0.0,
		0.0,
		0.0,
		-1.0],
		"scale":[1.0,
		1.0,
		1.0]
	}],
	"meshes":[{
		"name":"ETIQUETA",
		"primitives":[{
			"attributes":{
				"POSITION":1,
				"NORMAL":2,
				"TEXCOORD_0":3
			},
			"indices":0,
			"material":0
		}]
	},
	{
		"name":"Extrusión.1",
		"primitives":[{
			"attributes":{
				"POSITION":5,
				"NORMAL":6,
				"TEXCOORD_0":7
			},
			"indices":4,
			"material":1
		}]
	},
	{
		"name":"COLONIA",
		"primitives":[{
			"attributes":{
				"POSITION":9,
				"NORMAL":10,
				"TEXCOORD_0":11
			},
			"indices":8,
			"material":2
		}]
	},
	{
		"name":"FRASCO",
		"primitives":[{
			"attributes":{
				"POSITION":13,
				"NORMAL":14,
				"TEXCOORD_0":15
			},
			"indices":12,
			"material":2
		}]
	},
	{
		"name":"TAPA",
		"primitives":[{
			"attributes":{
				"POSITION":17,
				"NORMAL":18,
				"TEXCOORD_0":19
			},
			"indices":16,
			"material":1
		}]
	}],
	"accessors":[{
		"bufferView":0,
		"type":"SCALAR",
		"componentType":5123,
		"min":[0],
		"count":600,
		"byteOffset":0,
		"max":[120]
	},
	{
		"bufferView":1,
		"type":"VEC3",
		"componentType":5126,
		"min":[-0.4668394923210144,
		9.30287053310273e-15,
		-0.6287053823471069],
		"count":121,
		"byteOffset":0,
		"max":[0.4668395221233368,
		9.30287053310273e-15,
		0.6287053823471069]
	},
	{
		"bufferView":1,
		"type":"VEC3",
		"componentType":5126,
		"min":[0.0,
		1.0,
		0.0],
		"count":121,
		"byteOffset":12,
		"max":[0.0,
		1.0,
		0.0]
	},
	{
		"bufferView":1,
		"type":"VEC2",
		"componentType":5126,
		"min":[0.0,
		-3.3306690738754698e-16],
		"count":121,
		"byteOffset":24,
		"max":[1.0,
		1.0]
	},
	{
		"bufferView":2,
		"type":"SCALAR",
		"componentType":5123,
		"min":[0],
		"count":13095,
		"byteOffset":0,
		"max":[4660]
	},
	{
		"bufferView":3,
		"type":"VEC3",
		"componentType":5126,
		"min":[0.11784517019987107,
		-0.06292926520109177,
		-0.614888072013855],
		"count":4661,
		"byteOffset":0,
		"max":[0.6119097471237183,
		-0.04988658055663109,
		-0.12032657861709595]
	},
	{
		"bufferView":3,
		"type":"VEC3",
		"componentType":5126,
		"min":[-1.0,
		-0.0000625015381956473,
		-1.0],
		"count":4661,
		"byteOffset":12,
		"max":[1.0,
		1.0,
		1.0]
	},
	{
		"bufferView":3,
		"type":"VEC2",
		"componentType":5126,
		"min":[0.0,
		0.0],
		"count":4661,
		"byteOffset":24,
		"max":[1.0,
		1.0]
	},
	{
		"bufferView":4,
		"type":"SCALAR",
		"componentType":5123,
		"min":[0],
		"count":6912,
		"byteOffset":0,
		"max":[1185]
	},
	{
		"bufferView":5,
		"type":"VEC3",
		"componentType":5126,
		"min":[-0.6696810126304627,
		-2.424196720123291,
		-0.40276864171028139],
		"count":1186,
		"byteOffset":0,
		"max":[0.6682649850845337,
		0.2574187219142914,
		0.40276864171028139]
	},
	{
		"bufferView":5,
		"type":"VEC3",
		"componentType":5126,
		"min":[-0.9999961853027344,
		-1.0,
		-1.0],
		"count":1186,
		"byteOffset":12,
		"max":[0.9999961853027344,
		1.0,
		1.0]
	},
	{
		"bufferView":5,
		"type":"VEC2",
		"componentType":5126,
		"min":[0.15900000929832459,
		0.1589999794960022],
		"count":1186,
		"byteOffset":24,
		"max":[0.840999960899353,
		0.840999960899353]
	},
	{
		"bufferView":6,
		"type":"SCALAR",
		"componentType":5123,
		"min":[0],
		"count":23040,
		"byteOffset":0,
		"max":[4130]
	},
	{
		"bufferView":7,
		"type":"VEC3",
		"componentType":5126,
		"min":[-0.7387353777885437,
		-2.652512311935425,
		-0.4386613368988037],
		"count":4131,
		"byteOffset":0,
		"max":[0.7387353777885437,
		0.9890226721763611,
		0.4386613368988037]
	},
	{
		"bufferView":7,
		"type":"VEC3",
		"componentType":5126,
		"min":[-1.0,
		-1.0,
		-1.0],
		"count":4131,
		"byteOffset":12,
		"max":[1.0,
		1.0,
		1.0]
	},
	{
		"bufferView":7,
		"type":"VEC2",
		"componentType":5126,
		"min":[0.0,
		0.0],
		"count":4131,
		"byteOffset":24,
		"max":[1.0,
		1.0]
	},
	{
		"bufferView":8,
		"type":"SCALAR",
		"componentType":5123,
		"min":[0],
		"count":12021,
		"byteOffset":0,
		"max":[2920]
	},
	{
		"bufferView":9,
		"type":"VEC3",
		"componentType":5126,
		"min":[-0.3504731059074402,
		-0.3754141926765442,
		-0.3504731059074402],
		"count":2921,
		"byteOffset":0,
		"max":[0.3504731059074402,
		0.3754141926765442,
		0.3504731059074402]
	},
	{
		"bufferView":9,
		"type":"VEC3",
		"componentType":5126,
		"min":[-1.0,
		-1.0,
		-1.0],
		"count":2921,
		"byteOffset":12,
		"max":[1.0,
		1.0,
		1.0]
	},
	{
		"bufferView":9,
		"type":"VEC2",
		"componentType":5126,
		"min":[0.0,
		0.0],
		"count":2921,
		"byteOffset":24,
		"max":[1.0,
		1.0]
	}],
	"bufferViews":[{
		"buffer":0,
		"byteOffset":0,
		"byteLength":1200,
		"target":34963
	},
	{
		"buffer":0,
		"byteOffset":1200,
		"byteLength":3872,
		"target":34962,
		"byteStride":32
	},
	{
		"buffer":1,
		"byteOffset":0,
		"byteLength":26190,
		"target":34963
	},
	{
		"buffer":1,
		"byteOffset":26192,
		"byteLength":149152,
		"target":34962,
		"byteStride":32
	},
	{
		"buffer":2,
		"byteOffset":0,
		"byteLength":13824,
		"target":34963
	},
	{
		"buffer":2,
		"byteOffset":13824,
		"byteLength":37952,
		"target":34962,
		"byteStride":32
	},
	{
		"buffer":3,
		"byteOffset":0,
		"byteLength":46080,
		"target":34963
	},
	{
		"buffer":3,
		"byteOffset":46080,
		"byteLength":132192,
		"target":34962,
		"byteStride":32
	},
	{
		"buffer":4,
		"byteOffset":0,
		"byteLength":24042,
		"target":34963
	},
	{
		"buffer":4,
		"byteOffset":24044,
		"byteLength":93472,
		"target":34962,
		"byteStride":32
	}],
	"buffers":[{
		"uri":"data:application/octet-stream;base64,",
		"byteLength":5072
	},
	{
		"uri":"data:application/octet-stream;base64,",
		"byteLength":175344
	},
	{
		"uri":"data:application/octet-stream;base64,",
		"byteLength":51776
	},
	{
		"uri":"data:application/octet-stream;base64,",
		"byteLength":178272
	},
	{
		"uri":"data:application/octet-stream;base64,",
		"byteLength":117516
	}],
	"materials":[{
		"pbrMetallicRoughness":{
			"baseColorFactor":[1.0,
			1.0,
			1.0,
			1.0],
			"metallicFactor":1.0,
			"roughnessFactor":1.0
		},
		"emissiveFactor":[0.0,
		0.0,
		0.0],
		"alphaMode":"OPAQUE",
		"doubleSided":true,
		"name":"RS Standard.1"
	},
	{
		"pbrMetallicRoughness":{
			"baseColorFactor":[1.0,
			1.0,
			1.0,
			1.0],
			"metallicFactor":1.0,
			"roughnessFactor":1.0
		},
		"emissiveFactor":[0.0,
		0.0,
		0.0],
		"alphaMode":"OPAQUE",
		"doubleSided":true,
		"name":"RS Standard"
	},
	{
		"pbrMetallicRoughness":{
			"baseColorFactor":[1.0,
			1.0,
			1.0,
			1.0],
			"metallicFactor":1.0,
			"roughnessFactor":1.0
		},
		"emissiveFactor":[0.0,
		0.0,
		0.0],
		"alphaMode":"OPAQUE",
		"doubleSided":true,
		"name":"Glass Clear 001"
	}]
}