<?xml version="1.0" encoding="UTF-8"?>
<svg id="Capa_1" data-name="Capa 1" xmlns="http://www.w3.org/2000/svg" viewBox="0 0 108.77 104.43">
  <defs>
    <style>
      .cls-1 {
        fill: #99f;
      }

      .cls-2 {
        fill: #00005b;
      }
    </style>
  </defs>
  <path class="cls-2" d="M74.78,22.44h-40.8c-5.6,0-10.14,4.54-10.14,10.14v39.27c0,5.6,4.54,10.14,10.14,10.14h40.8c5.6,0,10.14-4.54,10.14-10.14v-39.27c0-5.6-4.54-10.14-10.14-10.14Z"/>
  <path class="cls-1" d="M48.38,58.07h-9.46l-1.93,5.99c-.02.1-.08.19-.16.26-.08.07-.18.1-.29.11h-4.83c-.27,0-.37-.15-.29-.45l8.19-23.5.08-.25.03-.08.05-.18c.03-.09.05-.19.08-.29.11-.55.16-1.1.16-1.66,0-.04,0-.08,0-.12.01-.04.03-.07.06-.1s.06-.05.1-.06c.04-.01.08-.02.12-.01h6.52c.19,0,.3.07.33.2l9.3,26.08c.08.27,0,.41-.25.41h-5.32c-.09.01-.18-.01-.26-.07-.07-.05-.13-.13-.15-.22l-2.09-6.08ZM40.39,53.01h6.47l-.09-.3-.15-.48-.22-.69-.42-1.3-.4-1.25-.74-2.34c-.2-.64-.4-1.29-.59-1.94l-.21-.74-.23-.81-.21-.75h-.04c-.21.98-.46,1.96-.75,2.92l-.28.89-.67,2.15-.34,1.09c-.06.2-.12.39-.18.59l-.18.57-.18.56-.18.54-.18.53c-.09.26-.18.52-.26.77ZM71.53,55.73h-8.07c.1.8.36,1.57.78,2.26.46.68,1.1,1.22,1.86,1.54,1.03.44,2.14.66,3.26.64.89-.02,1.77-.11,2.64-.29.78-.1,1.54-.3,2.27-.59.14-.11.21-.04.21.2v3.89c0,.11-.01.21-.06.31-.05.07-.11.14-.18.18-.81.36-1.66.61-2.54.76-1.19.22-2.4.33-3.6.31-1.88,0-3.46-.28-4.75-.85l-.12-.06c-1.24-.55-2.33-1.37-3.19-2.42-.81-.98-1.41-2.12-1.76-3.34-.35-1.2-.53-2.45-.53-3.71,0-1.37.21-2.73.63-4.04.41-1.27,1.06-2.45,1.91-3.48.84-1.02,1.88-1.84,3.07-2.42,1.2-.59,2.62-.8,4.26-.8,1.36-.03,2.71.23,3.95.78,1.05.45,1.97,1.14,2.68,2.03.67.87,1.18,1.84,1.51,2.89.32,1.01.49,2.06.49,3.11,0,.6-.02,1.15-.06,1.64l-.04.42-.04.4-.02.2s0,.03,0,.04c-.01.09-.05.17-.12.23-.07.06-.16.09-.25.09h-.11s-.14,0-.14,0h-.11s-.26.03-.26.03l-.22.02c-.06,0-.12.01-.19.02l-.21.02h-.21s-.23.03-.23.03h-.24s-.13.01-.13.01h-.26c-.26.01-.53,0-.8-.02l-.42-.03c-.21-.02-.43-.02-.64-.03ZM63.46,52h6.05s.32,0,.32,0h.21s.24-.01.24-.01c.21-.02.41-.09.59-.2v-.25c0-.32-.06-.64-.16-.94-.22-.7-.67-1.31-1.26-1.73-.6-.42-1.32-.64-2.05-.61-.69-.04-1.38.12-1.98.46-.6.34-1.09.85-1.41,1.47-.28.57-.47,1.18-.55,1.82Z"/>
</svg>