<?xml version="1.0" encoding="UTF-8"?>
<svg id="Capa_1" data-name="Capa 1" xmlns="http://www.w3.org/2000/svg" viewBox="0 0 108.77 104.43">
  <defs>
    <style>
      .cls-1 {
        fill: #300;
      }

      .cls-2 {
        fill: #ff9a00;
      }
    </style>
  </defs>
  <path class="cls-1" d="M74.78,22.44h-40.8c-5.6,0-10.14,4.54-10.14,10.14v39.27c0,5.6,4.54,10.14,10.14,10.14h40.8c5.6,0,10.14-4.54,10.14-10.14v-39.27c0-5.6-4.54-10.14-10.14-10.14Z"/>
  <path class="cls-2" d="M53.44,58.17h-9.46l-1.93,5.98c-.03.11-.09.21-.18.27s-.2.1-.31.1h-4.79c-.27,0-.37-.15-.29-.45l8.19-23.6c.08-.25.16-.53.25-.84.11-.55.16-1.1.16-1.66,0-.04,0-.08.01-.12.01-.04.03-.07.06-.1.03-.03.06-.05.1-.06.04-.01.08-.02.12-.01h6.51c.19,0,.3.07.33.21l9.3,26.22c.08.27,0,.41-.25.41h-5.33c-.09.01-.18-.01-.26-.07-.08-.05-.13-.13-.15-.22l-2.09-6.06ZM45.45,53.01h6.47l-.09-.3-.15-.48-.11-.34-.17-.53-.36-1.12-.32-1-.82-2.59c-.2-.64-.4-1.29-.59-1.94l-.15-.53-.18-.62-.27-.97-.05-.18h-.04c-.2.98-.45,1.96-.75,2.92l-.61,1.96-.33,1.08-.34,1.09c-.06.2-.12.39-.18.59l-.18.57-.18.56-.18.54-.18.53c-.06.17-.12.35-.18.52l-.09.25ZM67.04,42.03c-.42.02-.83-.05-1.22-.21-.39-.16-.74-.39-1.03-.69-.29-.31-.52-.68-.66-1.08-.15-.4-.21-.83-.2-1.25-.01-.42.06-.84.22-1.24.16-.39.4-.75.7-1.04.59-.56,1.37-.88,2.19-.88h.09c.98,0,1.76.29,2.32.88.28.31.5.66.65,1.05.14.39.21.8.19,1.22.02.43-.05.86-.2,1.26-.15.4-.38.77-.68,1.08-.3.29-.65.53-1.04.68-.39.16-.81.23-1.23.22h-.09ZM64.22,64.12v-19.58c0-.25.11-.37.33-.37h5.04c.22,0,.33.12.33.37v19.58c0,.27-.11.41-.33.41h-5c-.23,0-.36-.12-.37-.37v-.04Z"/>
</svg>