<svg width="429" height="319" viewBox="0 0 429 319" fill="none" xmlns="http://www.w3.org/2000/svg">
<g clip-path="url(#clip0_29_111)" filter="url(#filter0_f_29_111)">
<path d="M420 257.558V265.039H115.658V56.0932H302.507V63.5742H123.156V257.558H420Z" fill="white"/>
<path d="M300.97 156.826H9V164.307H300.97V156.826Z" fill="white"/>
<path d="M74.3821 9V310H349.744V9H74.3821ZM342.246 302.519H81.8801V16.481H342.246V302.519Z" fill="white"/>
<path d="M202.859 199.243H192.887C171.331 199.243 153.785 181.737 153.785 160.229C153.785 138.721 171.331 121.216 192.887 121.216H202.859V128.697H192.887C175.454 128.697 161.283 142.836 161.283 160.229C161.283 177.623 175.454 191.762 192.887 191.762H202.859V199.243Z" fill="white"/>
<path d="M264.718 199.243H215.681V121.216H264.718V128.697H223.179V191.762H264.718V199.243Z" fill="white"/>
<path d="M306.256 56.0932H298.758V164.307H306.256V56.0932Z" fill="white"/>
</g>
<g clip-path="url(#clip1_29_111)" filter="url(#filter1_f_29_111)">
<path d="M420 257.558V265.039H115.658V56.0932H302.507V63.5742H123.156V257.558H420Z" fill="white"/>
<path d="M300.97 156.826H9V164.307H300.97V156.826Z" fill="white"/>
<path d="M74.3821 9V310H349.744V9H74.3821ZM342.246 302.519H81.8801V16.481H342.246V302.519Z" fill="white"/>
<path d="M202.859 199.243H192.887C171.331 199.243 153.785 181.737 153.785 160.229C153.785 138.721 171.331 121.216 192.887 121.216H202.859V128.697H192.887C175.454 128.697 161.283 142.836 161.283 160.229C161.283 177.623 175.454 191.762 192.887 191.762H202.859V199.243Z" fill="white"/>
<path d="M264.718 199.243H215.681V121.216H264.718V128.697H223.179V191.762H264.718V199.243Z" fill="white"/>
<path d="M306.256 56.0932H298.758V164.307H306.256V56.0932Z" fill="white"/>
</g>
<g clip-path="url(#clip2_29_111)" filter="url(#filter2_f_29_111)">
<path d="M420 257.558V265.039H115.658V56.0932H302.507V63.5742H123.156V257.558H420Z" fill="white"/>
<path d="M300.97 156.826H9V164.307H300.97V156.826Z" fill="white"/>
<path d="M74.3821 9V310H349.744V9H74.3821ZM342.246 302.519H81.8801V16.481H342.246V302.519Z" fill="white"/>
<path d="M202.859 199.243H192.887C171.331 199.243 153.785 181.737 153.785 160.229C153.785 138.721 171.331 121.216 192.887 121.216H202.859V128.697H192.887C175.454 128.697 161.283 142.836 161.283 160.229C161.283 177.623 175.454 191.762 192.887 191.762H202.859V199.243Z" fill="white"/>
<path d="M264.718 199.243H215.681V121.216H264.718V128.697H223.179V191.762H264.718V199.243Z" fill="white"/>
<path d="M306.256 56.0932H298.758V164.307H306.256V56.0932Z" fill="white"/>
</g>
<g clip-path="url(#clip3_29_111)">
<path d="M420 257.558V265.039H115.658V56.0932H302.507V63.5742H123.156V257.558H420Z" fill="white"/>
<path d="M300.97 156.826H9V164.307H300.97V156.826Z" fill="white"/>
<path d="M74.3821 9V310H349.744V9H74.3821ZM342.246 302.519H81.8801V16.481H342.246V302.519Z" fill="white"/>
<path d="M202.859 199.243H192.887C171.331 199.243 153.785 181.737 153.785 160.229C153.785 138.721 171.331 121.216 192.887 121.216H202.859V128.697H192.887C175.454 128.697 161.283 142.836 161.283 160.229C161.283 177.623 175.454 191.762 192.887 191.762H202.859V199.243Z" fill="white"/>
<path d="M264.718 199.243H215.681V121.216H264.718V128.697H223.179V191.762H264.718V199.243Z" fill="white"/>
<path d="M306.256 56.0932H298.758V164.307H306.256V56.0932Z" fill="white"/>
</g>
<defs>
<filter id="filter0_f_29_111" x="1.4" y="1.4" width="426.2" height="316.2" filterUnits="userSpaceOnUse" color-interpolation-filters="sRGB">
<feFlood flood-opacity="0" result="BackgroundImageFix"/>
<feBlend mode="normal" in="SourceGraphic" in2="BackgroundImageFix" result="shape"/>
<feGaussianBlur stdDeviation="3.8" result="effect1_foregroundBlur_29_111"/>
</filter>
<filter id="filter1_f_29_111" x="0.3" y="0.3" width="428.4" height="318.4" filterUnits="userSpaceOnUse" color-interpolation-filters="sRGB">
<feFlood flood-opacity="0" result="BackgroundImageFix"/>
<feBlend mode="normal" in="SourceGraphic" in2="BackgroundImageFix" result="shape"/>
<feGaussianBlur stdDeviation="4.35" result="effect1_foregroundBlur_29_111"/>
</filter>
<filter id="filter2_f_29_111" x="0.3" y="0.3" width="428.4" height="318.4" filterUnits="userSpaceOnUse" color-interpolation-filters="sRGB">
<feFlood flood-opacity="0" result="BackgroundImageFix"/>
<feBlend mode="normal" in="SourceGraphic" in2="BackgroundImageFix" result="shape"/>
<feGaussianBlur stdDeviation="4.35" result="effect1_foregroundBlur_29_111"/>
</filter>
<clipPath id="clip0_29_111">
<rect width="411" height="301" fill="white" transform="translate(9 9)"/>
</clipPath>
<clipPath id="clip1_29_111">
<rect width="411" height="301" fill="white" transform="translate(9 9)"/>
</clipPath>
<clipPath id="clip2_29_111">
<rect width="411" height="301" fill="white" transform="translate(9 9)"/>
</clipPath>
<clipPath id="clip3_29_111">
<rect width="411" height="301" fill="white" transform="translate(9 9)"/>
</clipPath>
</defs>
</svg>
