<?xml version="1.0" encoding="UTF-8"?>
<svg id="Capa_1" data-name="Capa 1" xmlns="http://www.w3.org/2000/svg" viewBox="0 0 108.77 104.43">
  <defs>
    <style>
      .cls-1 {
        fill: #f36;
      }

      .cls-2 {
        fill: #49021f;
      }
    </style>
  </defs>
  <path class="cls-2" d="M74.78,22.44h-40.8c-5.6,0-10.14,4.54-10.14,10.14v39.27c0,5.6,4.54,10.14,10.14,10.14h40.8c5.6,0,10.14-4.54,10.14-10.14v-39.27c0-5.6-4.54-10.14-10.14-10.14Z"/>
  <path class="cls-1" d="M46.03,38.02v26.1c0,.27-.12.41-.37.41h-4.96c-.22,0-.33-.14-.33-.41v-26.1c0-.22.12-.33.37-.33h4.96s.08,0,.12,0c.04.01.08.03.11.06.03.03.06.06.07.1.02.04.02.08.02.12v.03ZM60.96,64.93h-.26c-1.89.03-3.75-.36-5.47-1.14-1.6-.74-2.93-1.95-3.83-3.46-.91-1.51-1.37-3.38-1.39-5.63v-.17c-.02-1.88.46-3.73,1.39-5.37.93-1.62,2.29-2.96,3.92-3.86l.13-.07c1.77-.98,3.92-1.47,6.43-1.47h.05s.12,0,.12,0h.13s.15.01.15.01h.16s.18.02.18.02l.4.03h.11s0-8.06,0-8.06c0-.19.08-.29.25-.29h5.16s.07,0,.1,0c.03.01.06.03.08.05.02.02.04.05.05.08.01.03.01.07,0,.1v24.21c0,.51.02,1.01.06,1.52l.04.53.03.49.03.45c0,.09-.02.17-.06.24-.04.07-.11.13-.19.17-1.33.56-2.72.97-4.14,1.23-1.21.22-2.44.35-3.67.37M63.19,59.85v-11.19c-.22-.06-.45-.1-.68-.12-.28-.03-.56-.04-.84-.04-.99,0-1.98.21-2.87.66-.87.43-1.61,1.08-2.15,1.88-.56.82-.84,1.9-.84,3.24-.02.89.13,1.78.43,2.62.25.68.64,1.29,1.15,1.8.49.47,1.08.82,1.72,1.02.68.22,1.39.33,2.11.33.38,0,.74-.01,1.07-.04.26-.02.52-.06.77-.13l.13-.04Z"/>
</svg>