<?xml version="1.0" encoding="UTF-8"?>
<svg id="Capa_1" xmlns="http://www.w3.org/2000/svg" version="1.1" viewBox="0 0 260 280">
  <!-- Generator: Adobe Illustrator 29.8.1, SVG Export Plug-In . SVG Version: 2.1.1 Build 2)  -->
  <defs>
    <style>
      .st0 {
        fill: #fff;
      }
    </style>
  </defs>
  <path class="st0" d="M144.82,76.8c8.38,8.87,27.44,7.72,28.93,22.61.54,5.38-3.97,14.18,4.77,16.17,18.61,4.23,13.75-23.48,6.52-33.51-8.49-11.77-21.74-10.56-28.22-17.78-7.85-8.73-.15-18.99-6.04-23.96-2.69-2.27-8.37-2.1-11.35-.42s-3.77,5.97-4.88,9.12c-10.11,28.69-16.64,59.79-26.22,88.78-1.28,1.66-1.07.51-2.04.02-3.3-1.68-6.32-4.48-10.11-5.91-30.03-11.33-61.93,17.55-45.17,47.17,12.94,22.88,50.36,22.28,62.83-.78l30.98-101.53ZM157.11,143.5c-2-2.28-1.97-7.13-6.27-8.28-3.08-.82-6.93,1.68-6.9,5.04l15.86,60.53c-20.78-5.87-38.78,20.82-20.01,35.52,15.97,12.52,40.25.2,35.76-20.76l-15.74-58.75c7.01,1.14,15.8-3.19,21.53,1.96,2.84,2.56,2.61,8.01,7.21,8.88,3.4.64,6.02-.88,6.35-4.32.88-9.12-11.39-17.1-19.63-17.54-5.99-.32-13.06,3.51-18.16-2.28Z"/>
  <path class="st0" d="M144.82,76.8l-30.98,101.53c-12.48,23.05-49.89,23.65-62.83.78-16.76-29.63,15.15-58.51,45.17-47.17,3.79,1.43,6.81,4.23,10.11,5.91.97.49.76,1.64,2.04-.02,9.58-28.99,16.11-60.09,26.22-88.78,1.11-3.15,1.76-7.37,4.88-9.12s8.65-1.85,11.35.42c5.9,4.96-1.8,15.22,6.04,23.96,6.49,7.22,19.73,6,28.22,17.78,7.23,10.03,12.09,37.74-6.52,33.51-8.74-1.99-4.23-10.79-4.77-16.17-1.49-14.89-20.55-13.74-28.93-22.61Z"/>
  <path class="st0" d="M157.11,143.5c5.09,5.79,12.16,1.96,18.16,2.28,8.24.44,20.51,8.42,19.63,17.54-.33,3.44-2.95,4.96-6.35,4.32-4.6-.86-4.37-6.32-7.21-8.88-5.73-5.15-14.52-.82-21.53-1.96l15.74,58.75c4.49,20.96-19.79,33.29-35.76,20.76-18.76-14.71-.76-41.39,20.01-35.52l-15.86-60.53c-.03-3.36,3.82-5.87,6.9-5.04,4.29,1.15,4.26,6,6.27,8.28Z"/>
</svg>