<?xml version="1.0" encoding="UTF-8"?>
<svg id="Capa_1" data-name="Capa 1" xmlns="http://www.w3.org/2000/svg" viewBox="0 0 108.77 104.43">
  <defs>
    <style>
      .cls-1 {
        fill: #99f;
      }

      .cls-2 {
        fill: #00005b;
      }
    </style>
  </defs>
  <path class="cls-2" d="M34.66,22.44h39.44c5.98,0,10.82,4.84,10.82,10.82v37.92c0,5.98-4.84,10.82-10.82,10.82h-39.44c-5.98,0-10.82-4.84-10.82-10.82v-37.92c0-5.98,4.84-10.82,10.82-10.82Z"/>
  <path class="cls-1" d="M38.35,64.2v-26.19c0-.18.08-.28.25-.28h.37s.29,0,.29,0h.2s.21,0,.21,0h.23s.12-.01.12-.01c.23,0,.46-.02.7-.02l.73-.02c.08,0,.17,0,.25,0h.26c.23-.02.46-.02.7-.03h.74s.51-.02.51-.02h.26c.53-.02,1.04-.03,1.55-.03h.76c2.09,0,3.82.25,5.24.79,1.28.43,2.44,1.15,3.41,2.09.82.82,1.45,1.81,1.86,2.9.38,1.07.59,2.16.59,3.31,0,2.19-.51,4-1.53,5.42-1.02,1.43-2.44,2.49-4.1,3.1-1.67.62-3.51.85-5.52.86h-1.01s-.18,0-.18,0h-.11s-.1-.01-.1-.01h-.09c-.05-.01-.11-.02-.17-.02h-.12s-.14,0-.14,0h-.23s-.44,0-.44,0v8.17c.03.18-.1.33-.28.36h-4.94c-.2,0-.31-.1-.31-.33ZM43.9,42.64v8.55l.3.02c.23.02.46.03.69.03h1.35c.99,0,1.98-.15,2.93-.46.81-.23,1.53-.71,2.09-1.35.53-.64.79-1.5.79-2.62.02-.8-.18-1.58-.59-2.27-.41-.63-.99-1.13-1.69-1.41l-.09-.04c-.94-.38-1.96-.53-3-.51h-.59s-.28,0-.28,0h-.26s-.25,0-.25,0c-.12,0-.24,0-.35.01-.05,0-.11,0-.16,0h-.15s-.05,0-.07,0h-.14s-.12,0-.12,0h-.06s-.1,0-.1,0h-.09s-.04.01-.04.01h-.07s-.03.01-.03.01ZM61.15,44.12h4.45c.24,0,.44.16.52.37v.04c.09.2.14.41.17.64.05.25.1.53.13.79l.02.25c.02.21.03.43.03.67.73-.85,1.6-1.57,2.58-2.11l.14-.08c1.17-.66,2.52-.99,3.87-.99.18-.03.33.1.36.28v5.06c0,.2-.13.28-.41.28-.86-.02-1.73.04-2.57.22l-.18.04c-.74.15-1.45.38-2.14.69-.48.23-.94.53-1.3.94v12.98c0,.25-.1.36-.33.36h-5.01c-.2.03-.38-.1-.41-.31v-14.2c0-.61,0-1.25-.03-1.91l-.02-.5-.02-.99c0-.17,0-.33-.02-.5,0-.59-.05-1.15-.1-1.73-.03-.13.05-.25.18-.28,0-.02.04-.02.06,0h.01Z"/>
</svg>