<?xml version="1.0" encoding="UTF-8"?>
<svg id="Capa_1" data-name="Capa 1" xmlns="http://www.w3.org/2000/svg" viewBox="0 0 108.77 104.43">
  <defs>
    <style>
      .cls-1 {
        fill: #001e36;
      }

      .cls-2 {
        fill: #31a8ff;
      }
    </style>
  </defs>
  <path class="cls-1" d="M34.43,22.03h39.91c6.05,0,10.94,4.9,10.94,10.96v38.43c0,6.06-4.89,10.96-10.94,10.96h-39.91c-6.05,0-10.94-4.9-10.94-10.96v-38.43c0-6.06,4.89-10.96,10.94-10.96Z"/>
  <path class="cls-2" d="M45.57,37.3c-.77,0-1.55,0-2.35.03-.8.03-1.55.03-2.24.05-.7.03-1.34.03-1.96.05-.59.03-1.01.03-1.44.03-.18,0-.26.1-.26.28v26.59c0,.23.1.34.31.34h5c.18-.03.31-.18.28-.36v-8.3c.49,0,.85,0,1.11.03.26.03.67.03,1.29.03,2.11,0,4.05-.23,5.8-.88,1.68-.62,3.12-1.71,4.15-3.15,1.03-1.45,1.55-3.28,1.55-5.51,0-1.16-.21-2.27-.59-3.36-.41-1.11-1.05-2.11-1.88-2.95-.98-.95-2.16-1.68-3.45-2.12-1.44-.54-3.2-.8-5.31-.8ZM46.15,42.39c.92.02,1.81.18,2.65.52.75.28,1.37.8,1.8,1.47.41.69.62,1.49.59,2.3,0,1.14-.26,2.02-.8,2.66-.57.65-1.29,1.14-2.11,1.37-.95.31-1.96.46-2.96.46h-1.37c-.31,0-.64-.03-1-.05v-8.68c.18-.03.54-.05,1.06-.03.49-.03,1.08-.03,1.75-.03.13,0,.26,0,.39,0ZM67.76,43.71c-1.83,0-3.35.28-4.56.9-1.11.52-2.06,1.34-2.71,2.38-.57.96-.88,2.02-.88,3.13-.02.91.18,1.82.59,2.64.48.87,1.15,1.62,1.96,2.2,1.13.78,2.36,1.4,3.66,1.86,1.26.49,2.11.88,2.53,1.21.41.34.62.67.62,1.03,0,.47-.28.9-.7,1.09-.46.23-1.16.36-2.14.36-1.03,0-2.06-.13-3.04-.39-1.12-.25-2.2-.68-3.2-1.27-.08-.05-.15-.08-.23-.03-.08.05-.1.15-.1.23v4.5c-.03.21.1.39.28.49.84.39,1.72.67,2.63.83,1.16.23,2.32.34,3.5.34,1.86,0,3.4-.28,4.67-.83,1.16-.47,2.16-1.27,2.89-2.3.68-1.02,1.03-2.22,1.01-3.44.03-.92-.18-1.84-.59-2.66-.49-.88-1.19-1.6-2.04-2.15-1.24-.78-2.58-1.42-3.97-1.89-.62-.26-1.23-.54-1.83-.85-.33-.18-.64-.41-.88-.7-.15-.21-.26-.44-.26-.67s.08-.49.21-.7c.18-.26.46-.44.8-.52.49-.13,1.03-.21,1.55-.18.98,0,1.93.13,2.89.34.88.18,1.7.47,2.47.88.1.05.23.05.46,0,.04-.03.07-.07.1-.11.02-.05.03-.09.03-.15v-4.21c0-.1-.03-.21-.05-.31-.05-.1-.15-.21-.26-.23-.71-.29-1.46-.49-2.22-.59-1.06-.15-2.13-.23-3.2-.23Z"/>
</svg>